<svg width="201" height="201" viewBox="0 0 201 201" fill="none" xmlns="http://www.w3.org/2000/svg">
<path d="M0.5 34.6464C0.5 15.7879 15.7878 0.5 34.6463 0.5H98.061V93.1829H0.5V34.6464Z" fill="#79A86B"/>
<path d="M161.476 0.499999C177.64 0.499999 190.744 13.6039 190.744 29.7683L190.744 93.1829L98.061 93.1829L98.061 0.499996L161.476 0.499999Z" fill="#B275BF"/>
<path d="M195.622 154.159C195.622 173.017 180.334 188.305 161.476 188.305L98.061 188.305L98.061 95.6219L195.622 95.6219L195.622 154.159Z" fill="#6E93E0"/>
<path d="M34.6463 195.622C15.7878 195.622 0.499999 180.334 0.499999 161.476L0.499996 98.061L98.061 98.061L98.061 195.622L34.6463 195.622Z" fill="#D02E3D"/>
<mask id="path-5-inside-1_36_10" fill="white">
<path d="M0.5 30.1378C0.5 13.7693 13.7693 0.5 30.1378 0.5H170.862C187.231 0.5 200.5 13.7693 200.5 30.1378V170.862C200.5 187.231 187.231 200.5 170.862 200.5H30.1378C13.7693 200.5 0.5 187.231 0.5 170.862V30.1378Z"/>
</mask>
<path d="M-3.20473 30.1378C-3.20473 11.7232 11.7232 -3.20473 30.1378 -3.20473H181.976C200.391 -3.20473 215.319 11.7232 215.319 30.1378L185.681 30.1378C185.681 15.8154 179.046 4.20473 170.862 4.20473H30.1378C15.8154 4.20473 4.20473 15.8154 4.20473 30.1378L-3.20473 30.1378ZM215.319 170.862C215.319 195.415 195.415 215.319 170.862 215.319H30.1378C11.7232 215.319 -3.20473 200.391 -3.20473 181.976L4.20473 170.862C4.20473 179.046 15.8154 185.681 30.1378 185.681H170.862C179.046 185.681 185.681 179.046 185.681 170.862L215.319 170.862ZM30.1378 215.319C11.7232 215.319 -3.20473 200.391 -3.20473 181.976V30.1378C-3.20473 11.7232 11.7232 -3.20473 30.1378 -3.20473L30.1378 4.20473C15.8154 4.20473 4.20473 15.8154 4.20473 30.1378V170.862C4.20473 179.046 15.8154 185.681 30.1378 185.681L30.1378 215.319ZM181.976 -3.20473C200.391 -3.20473 215.319 11.7232 215.319 30.1378V170.862C215.319 195.415 195.415 215.319 170.862 215.319L170.862 185.681C179.046 185.681 185.681 179.046 185.681 170.862V30.1378C185.681 15.8154 179.046 4.20473 170.862 4.20473L181.976 -3.20473Z" fill="black" mask="url(#path-5-inside-1_36_10)"/>
<line x1="0.5" y1="95.6219" x2="200.5" y2="95.6219" stroke="black" stroke-width="4.87805"/>
<line x1="98.061" y1="0.5" x2="98.061" y2="200.5" stroke="black" stroke-width="4.87805"/>
</svg>
