<svg width="410" height="42" viewBox="0 0 410 42" fill="none" xmlns="http://www.w3.org/2000/svg">
<g clip-path="url(#clip0_1_30)">
<path d="M20.9614 7.4428C20.9614 4.40492 18.0754 3.64545 15.797 3.64545V4.10113C17.164 4.10113 18.2273 4.55681 18.2273 5.62007C18.2273 6.22764 17.7716 7.13901 16.4045 7.13901C15.3413 7.13901 13.0629 6.53143 11.392 5.92386C9.41742 5.16439 7.5947 4.55681 6.07576 4.55681C3.03788 4.55681 0.911364 6.83522 0.911364 9.41742C0.911364 11.6958 2.5822 12.4553 3.18977 12.7591L3.34167 12.4553C3.03788 12.1515 2.5822 11.8477 2.5822 10.9364C2.5822 10.3288 3.18977 9.26552 4.70871 9.26552C6.07576 9.26552 7.89849 9.8731 10.3288 10.6326C12.4553 11.2401 14.7337 11.6958 15.9489 11.8477V16.5564L13.6705 18.5311V18.6829L15.9489 20.6576V27.189C14.7337 27.9485 13.3667 28.1004 12.1515 28.1004C9.87311 28.1004 7.89848 27.4928 6.22765 25.6701L12.4553 22.6322V12.1515L4.86061 15.4932C5.46818 13.5186 7.13902 12.1515 8.80985 11.2401L8.65795 10.7845C4.10114 11.9996 0 16.2526 0 21.417C0 27.4928 5.0125 32.0496 10.6326 32.0496C16.7083 32.0496 20.6576 27.189 20.6576 22.1765H20.3538C19.4424 24.1511 18.0754 25.9739 16.4045 26.8852V20.6576L18.8348 18.6829V18.5311L16.4045 16.5564V11.8477C18.683 11.8477 20.9614 10.3288 20.9614 7.4428ZM7.74659 24.1511L5.92386 25.0625C4.86061 23.6954 4.25303 21.8727 4.25303 19.2905C4.25303 18.2273 4.25303 17.0121 4.55682 16.1008L7.74659 14.7337V24.1511ZM23.8473 27.6447L21.8727 29.1636L22.1765 29.4674L23.0879 28.7079L26.4295 31.7458L30.9864 28.7079L30.8345 28.4042L29.6193 29.1636L28.1004 27.6447V17.3159L29.3155 16.4045L31.8977 18.5311V27.7966C31.8977 33.5686 30.6826 34.4799 28.1004 35.3913V35.847C32.3534 35.9989 36.3027 34.6318 36.3027 27.189V17.164L37.6697 16.1008L37.3659 15.797L36.1508 16.7083L32.3534 13.5186L28.1004 16.7083V4.25302H27.7966L22.4803 7.89848V8.20226C23.0879 8.50605 23.9992 8.80984 23.9992 10.4807L23.8473 27.6447ZM51.6439 25.9739L47.8466 28.8598L44.0492 25.822V23.9992L51.1883 19.1386V18.9867L47.5428 13.5186L39.6443 17.7716V27.7966L38.1254 29.0117L38.4292 29.3155L39.7962 28.2523L44.9606 32.0496L51.7958 26.5814L51.6439 25.9739ZM44.0492 23.3917V15.9489L44.353 15.797L47.6947 21.1132L44.0492 23.3917ZM80.6557 6.07575C80.6557 5.62007 80.5038 5.16439 80.3519 4.7087H80.0481C79.5924 5.92386 78.9848 6.53143 77.4659 6.53143C76.0989 6.53143 75.1875 5.77196 74.5799 5.16439L70.175 10.1769L70.4788 10.4807L71.9977 9.11363C72.9091 9.8731 73.6686 10.4807 75.7951 10.6326V23.2398L66.8333 7.89848C66.0739 6.68333 65.0106 5.01249 62.8841 5.01249C60.4538 5.01249 58.3273 7.13901 58.6311 10.4807H59.0867C59.2386 9.56931 59.6943 8.50605 60.7576 8.50605C61.517 8.50605 62.2765 9.26552 62.7322 10.025V15.0375C59.9981 15.0375 58.1754 16.2526 58.1754 18.5311C58.1754 19.7462 58.783 21.5689 60.6057 22.0246V21.7208C60.3019 21.417 60.15 21.1133 60.15 20.6576C60.15 19.8981 60.7576 19.2905 61.8208 19.2905H62.5803V25.6701C59.3905 25.6701 56.8083 27.4928 56.8083 30.5307C56.8083 33.4167 59.2386 34.7837 61.9727 34.6318V34.328C60.3019 34.1761 59.5424 33.4167 59.5424 32.3534C59.5424 30.9864 60.4538 30.3788 61.6689 30.3788C62.8841 30.3788 63.9473 31.1383 64.7068 32.0496L69.1117 27.189L68.808 26.8852L67.7447 28.1004C66.0739 26.5814 65.1625 26.1257 63.1879 25.822V10.6326L75.3394 31.8977H76.2508V10.6326C78.5292 10.4807 80.6557 8.65795 80.6557 6.07575ZM91.7439 25.9739L87.9466 28.8598L84.1492 25.822V23.9992L91.2883 19.1386V18.9867L87.6428 13.5186L79.7443 17.7716V27.7966L78.2254 29.0117L78.5292 29.3155L79.8962 28.2523L85.0606 32.0496L91.8958 26.5814L91.7439 25.9739ZM84.1492 23.3917V15.9489L84.453 15.797L87.7947 21.1132L84.1492 23.3917ZM116.503 15.1894L115.439 15.9489L112.553 13.5186L109.212 16.5564L110.579 17.9235V29.3155L106.933 27.0371V17.6197L108.148 16.8602L104.655 13.5186L101.313 16.5564L102.68 17.9235V28.8598L102.225 29.1636L99.0348 26.8852V17.7716C99.0348 15.6451 97.9716 15.0375 96.7564 14.278C95.6932 13.5186 95.0856 13.0629 95.0856 11.9996C95.0856 11.0882 95.997 10.6326 96.4527 10.3288V10.025C95.2375 10.025 92.0477 11.2401 92.0477 14.1261C92.0477 15.6451 92.8072 16.2526 93.5667 17.0121C94.3261 17.7716 95.0856 18.3792 95.0856 19.7462V28.5561L93.4148 29.7712L93.7186 30.075L95.2375 28.8598L98.7311 31.8977L102.528 29.3155L106.781 31.8977L114.832 27.189V17.0121L116.806 15.4932L116.503 15.1894ZM144.755 6.83522L143.236 8.20226L139.894 5.16439L134.882 8.80984V5.46817H134.426L134.578 30.075C134.122 30.075 132.755 29.7712 131.692 29.4674L131.388 8.96173C131.388 7.4428 130.325 5.31628 127.591 5.31628C124.857 5.31628 123.034 7.4428 123.034 9.56931H123.49C123.642 8.65795 124.097 7.89848 125.009 7.89848C125.92 7.89848 126.68 8.50605 126.68 10.4807V16.4045C123.945 16.5564 122.275 18.0754 122.275 20.05C122.275 21.2651 122.882 23.0879 124.705 23.0879V22.7841C124.097 22.4803 123.945 22.0246 123.945 21.7208C123.945 20.8095 124.705 20.5057 125.92 20.5057H126.528V29.9231C124.249 30.6826 123.338 32.3534 123.338 34.1761C123.338 36.7583 125.312 38.5811 128.35 38.5811C130.477 38.5811 132.3 38.2773 134.122 37.8216C135.641 37.5178 137.616 37.0621 138.527 37.0621C139.742 37.0621 140.198 37.6697 140.198 38.4292C140.198 39.4924 139.742 39.9481 139.135 40.1V40.4038C141.565 39.9481 143.084 38.4292 143.084 36.1507C143.084 33.8723 140.806 32.5053 138.375 32.5053C137.16 32.5053 134.578 32.961 132.755 33.2648C130.629 33.7204 128.502 34.0242 127.895 34.0242C126.831 34.0242 125.616 33.5686 125.616 32.0496C125.616 30.8345 126.68 29.7712 129.262 29.7712C130.629 29.7712 132.3 29.9231 133.97 30.3788C135.793 30.8345 137.464 31.2901 138.983 31.2901C141.261 31.2901 143.236 30.5307 143.236 27.3409V8.65795L145.059 7.13901L144.755 6.83522ZM138.527 16.1008C138.072 16.5564 137.464 17.0121 136.705 17.0121C135.945 17.0121 135.186 16.5564 134.882 16.1008V9.41742L136.401 8.35416L138.527 10.3288V16.1008ZM138.527 20.6576C138.223 20.3538 137.464 19.8981 136.705 19.8981C135.945 19.8981 135.186 20.3538 134.882 20.6576V16.7083C135.186 17.0121 135.945 17.4678 136.705 17.4678C137.464 17.4678 138.223 17.0121 138.527 16.7083V20.6576ZM138.527 27.7966C138.527 29.0117 137.768 30.2269 136.097 30.2269H134.882V21.2651C135.186 20.9614 135.945 20.5057 136.705 20.5057C137.464 20.5057 138.072 20.9614 138.527 21.2651V27.7966ZM159.337 17.0121L154.476 13.5186L147.033 17.7716V27.6447L145.514 28.8598L145.666 29.1636L146.881 28.2523L151.742 31.8977L159.337 27.3409V17.0121ZM151.134 26.5814V15.6451L154.932 18.3792V29.1636L151.134 26.5814ZM173.767 13.8223H173.463C173.007 14.1261 172.552 14.4299 172.096 14.4299C171.488 14.4299 170.729 14.1261 170.425 13.6704H170.121L167.539 16.5564L164.957 13.6704L160.4 16.7083L160.552 17.0121L161.767 16.2526L163.286 17.9235V27.4928L161.311 29.0117L161.615 29.3155L162.527 28.5561L166.172 31.5939L170.881 28.4042L170.729 28.1004L169.362 28.8598L167.539 27.3409V16.7083C168.298 17.4678 169.21 18.2273 170.273 18.2273C172.4 18.3792 173.615 16.2526 173.767 13.8223ZM191.994 28.4042L186.83 31.8977L179.842 21.2651L184.855 13.5186H185.159C185.766 14.1261 186.678 14.7337 187.741 14.7337C188.804 14.7337 189.564 14.1261 190.019 13.5186H190.323C190.171 16.5564 188.045 18.3792 186.526 18.3792C185.007 18.3792 184.247 17.6197 183.336 17.164L182.88 17.9235L190.475 29.1636L191.994 28.2523V28.4042ZM175.286 27.6447L173.311 29.1636L173.615 29.4674L174.526 28.7079L177.868 31.7458L182.425 28.7079L182.121 28.4042L180.906 29.1636L179.387 27.6447V4.25302H179.235L173.767 7.89848V8.20226C174.374 8.50605 175.286 8.65795 175.286 10.4807V27.6447ZM217.208 7.4428C217.208 4.40492 214.322 3.64545 212.044 3.64545V4.10113C213.411 4.10113 214.474 4.55681 214.474 5.62007C214.474 6.22764 214.019 7.13901 212.652 7.13901C211.588 7.13901 209.31 6.53143 207.639 5.92386C205.664 5.31628 203.842 4.7087 202.323 4.7087C199.285 4.7087 197.158 6.98711 197.158 9.56931C197.158 11.8477 198.829 12.6072 199.437 12.911L199.589 12.6072C199.133 12.3034 198.677 11.9996 198.677 11.0882C198.677 10.4807 199.285 9.41742 200.804 9.41742C202.171 9.41742 203.994 10.025 206.424 10.7845C208.55 11.392 210.829 11.8477 212.044 11.9996V16.7083L209.766 18.6829V18.8348L212.044 20.8095V27.3409C210.829 28.1004 209.462 28.2523 208.247 28.2523C205.968 28.2523 203.994 27.6447 202.323 25.822L208.55 22.7841V12.1515L200.956 15.4932C201.715 13.5186 203.386 12.1515 204.905 11.0882L204.753 10.7845C200.196 11.9996 196.095 16.1007 196.095 21.2651C196.095 27.3409 201.108 31.8977 206.728 31.8977C212.803 31.8977 216.753 27.0371 216.753 22.0246H216.449C215.537 23.9992 214.17 25.822 212.5 26.7333V20.5057L214.93 18.5311V18.3792L212.652 16.4045V11.8477C214.93 11.8477 217.208 10.3288 217.208 7.4428ZM203.994 24.1511L202.171 25.0625C201.108 23.6954 200.5 21.8727 200.5 19.2905C200.5 18.2273 200.652 17.0121 200.956 16.1008L204.145 14.7337L203.994 24.1511ZM222.525 5.92386H222.373L219.335 8.50605V8.65795L221.917 11.5439H222.221L225.259 8.96173V8.80984L222.525 5.92386ZM227.081 28.4042L225.866 29.1636L224.347 27.6447V17.164L225.866 16.1008L225.562 15.797L224.499 16.7083L221.765 13.5186L217.36 16.5564L217.664 17.0121L218.727 16.2526L220.094 17.9235V27.7966L218.12 29.3155L218.272 29.6193L219.335 28.8598L222.677 31.8977L227.233 28.8598L227.081 28.4042ZM252.448 28.2523L251.384 29.0117L249.714 27.4928V17.164L251.233 15.9489L250.929 15.6451L249.714 16.7083L246.22 13.5186L241.663 16.7083L238.17 13.5186L233.917 16.7083L231.183 13.5186L226.778 16.5564L226.93 17.0121L227.993 16.2526L229.512 17.9235V27.7966L228.297 29.0117L231.79 31.8977L235.132 28.8598L233.765 27.4928V17.164L235.132 16.2526L237.41 18.3792V27.4928L236.195 28.7079L239.689 31.5939L243.03 28.5561L241.663 27.189V17.164L242.878 16.4045L245.309 18.5311V27.6447L244.245 28.7079L247.739 31.8977L252.448 28.7079V28.2523ZM265.662 25.9739L261.865 28.8598L258.068 25.822V23.9992L265.207 19.1386V18.9867L261.561 13.5186L253.663 17.7716V28.1004L258.979 31.8977L265.814 26.4295L265.662 25.9739ZM258.068 23.3917V15.9489L258.372 15.797L261.713 21.1132L258.068 23.3917ZM279.485 22.0246L276.599 19.7462C278.573 18.0754 279.333 15.797 279.333 14.278V13.3667H279.029C278.725 14.1261 278.118 14.8856 276.903 14.8856C275.688 14.8856 274.928 14.278 274.169 13.3667L267.333 17.164V22.6322L269.916 24.6068C267.333 26.8852 266.878 28.4042 266.878 29.6193C266.878 31.1383 267.637 32.2015 268.852 32.6572L269.004 32.3534C268.7 32.0496 268.397 31.8977 268.397 31.1383C268.397 30.6826 269.004 29.9231 270.219 29.9231C271.738 29.9231 272.65 30.9864 273.105 31.442L279.637 27.4928V22.0246H279.485ZM277.814 17.4678C276.751 19.2905 274.472 21.1133 273.105 22.0246L271.434 20.6576V15.3413C272.042 16.8602 273.713 18.0754 275.384 18.0754C276.447 18.0754 277.055 17.9235 277.814 17.4678ZM275.232 29.6193C274.472 27.9485 272.65 26.7333 270.827 26.7333C270.371 26.7333 269.156 26.7333 267.941 27.4928C268.7 26.2776 270.675 24.1511 273.257 22.6322L275.08 24.1511L275.232 29.6193Z" fill="black"/>
</g>
<mask id="path-2-inside-1_1_30" fill="white">
<path d="M286 6.07576C286 2.72021 288.72 0 292.076 0H403.924C407.28 0 410 2.72021 410 6.07576V34.9242C410 38.2798 407.28 41 403.924 41H292.076C288.72 41 286 38.2798 286 34.9242V6.07576Z"/>
</mask>
<path d="M286 6.07576C286 2.72021 288.72 0 292.076 0H403.924C407.28 0 410 2.72021 410 6.07576V34.9242C410 38.2798 407.28 41 403.924 41H292.076C288.72 41 286 38.2798 286 34.9242V6.07576Z" fill="white"/>
<path d="M285.241 6.07576C285.241 2.30077 288.301 -0.75947 292.076 -0.75947H406.203C409.978 -0.75947 413.038 2.30077 413.038 6.07576H406.962C406.962 3.13965 405.602 0.75947 403.924 0.75947H292.076C289.14 0.75947 286.759 3.13965 286.759 6.07576H285.241ZM413.038 34.9242C413.038 39.9576 408.958 44.0379 403.924 44.0379H292.076C288.301 44.0379 285.241 40.9776 285.241 37.2027L286.759 34.9242C286.759 36.602 289.14 37.9621 292.076 37.9621H403.924C405.602 37.9621 406.962 36.602 406.962 34.9242H413.038ZM292.076 44.0379C288.301 44.0379 285.241 40.9776 285.241 37.2027V6.07576C285.241 2.30077 288.301 -0.75947 292.076 -0.75947V0.75947C289.14 0.75947 286.759 3.13965 286.759 6.07576V34.9242C286.759 36.602 289.14 37.9621 292.076 37.9621V44.0379ZM406.203 -0.75947C409.978 -0.75947 413.038 2.30077 413.038 6.07576V34.9242C413.038 39.9576 408.958 44.0379 403.924 44.0379V37.9621C405.602 37.9621 406.962 36.602 406.962 34.9242V6.07576C406.962 3.13965 405.602 0.75947 403.924 0.75947L406.203 -0.75947Z" fill="black" mask="url(#path-2-inside-1_1_30)"/>
<path d="M398.636 24.7803V29.1288H390.257V24.7803H391.37V20.4318C391.37 19.8485 391.247 19.4243 390.999 19.1591C390.752 18.8763 390.381 18.7349 389.886 18.7349C388.825 18.7349 388.295 19.3005 388.295 20.4318V24.7803H389.408V29.1288H381.03V24.7803H382.196V18.7349H381.03V14.3864H388.295V16.4546C389.567 14.8283 391.158 14.0152 393.067 14.0152C394.535 14.0152 395.631 14.4748 396.355 15.394C397.098 16.3131 397.469 17.577 397.469 19.1856V24.7803H398.636Z" fill="black"/>
<path d="M372.178 29.5C369.668 29.5 367.706 28.846 366.291 27.5379C364.877 26.2121 364.17 24.2854 364.17 21.7576C364.17 19.2298 364.877 17.3119 366.291 16.0038C367.706 14.678 369.668 14.0152 372.178 14.0152C374.723 14.0152 376.694 14.6869 378.091 16.0303C379.487 17.3561 380.185 19.2652 380.185 21.7576C380.185 24.2854 379.478 26.2121 378.064 27.5379C376.65 28.846 374.688 29.5 372.178 29.5ZM372.178 24.7803C372.69 24.7803 373.071 24.6477 373.318 24.3826C373.583 24.0997 373.716 23.6667 373.716 23.0833V20.4318C373.716 19.8485 373.583 19.4243 373.318 19.1591C373.071 18.8763 372.69 18.7349 372.178 18.7349C371.665 18.7349 371.276 18.8763 371.011 19.1591C370.764 19.4243 370.64 19.8485 370.64 20.4318V23.0833C370.64 23.6667 370.764 24.0997 371.011 24.3826C371.276 24.6477 371.665 24.7803 372.178 24.7803Z" fill="black"/>
<path d="M355.006 29.1553V24.7803H356.173V12.8485H355.006V8.5H362.271V24.7803H363.438V29.1553H355.006Z" fill="black"/>
<path d="M353.15 24.7803V29.1288H344.771V24.7803H345.885V20.4318C345.885 19.8485 345.761 19.4242 345.514 19.1591C345.266 18.8763 344.895 18.7348 344.4 18.7348C343.34 18.7348 342.809 19.3005 342.809 20.4318V24.7803H343.923V29.1288H335.544V24.7803H336.711V12.8485H335.544V8.5H342.809V16.4545C343.463 15.6414 344.17 15.0316 344.931 14.625C345.691 14.2184 346.574 14.0151 347.582 14.0151C349.049 14.0151 350.145 14.4747 350.87 15.3939C351.612 16.3131 351.984 17.577 351.984 19.1856V24.7803H353.15Z" fill="black"/>
<path d="M329.131 29.5C327.257 29.5 325.843 29.0492 324.888 28.1477C323.951 27.2285 323.483 25.6907 323.483 23.5341V18.7349H322.316V14.3864C322.988 14.3864 323.492 14.2185 323.828 13.8826C324.163 13.5291 324.331 13.0518 324.331 12.4508V11.2576H329.953V14.3864H333.532V18.7349H329.953V23.0833C329.953 23.6667 330.076 24.0998 330.324 24.3826C330.589 24.6477 330.978 24.7803 331.49 24.7803C332.162 24.7803 332.896 24.7008 333.691 24.5417V28.7045C333.196 28.899 332.524 29.0758 331.676 29.2348C330.845 29.4116 329.997 29.5 329.131 29.5Z" fill="black"/>
<path d="M321.727 24.7803V29.1288H314.727V27.3258C314.338 27.8914 313.79 28.3952 313.083 28.8371C312.393 29.279 311.545 29.5 310.537 29.5C309.211 29.5 308.169 29.1465 307.408 28.4394C306.648 27.7323 306.268 26.7336 306.268 25.4432C306.268 22.1023 309.105 20.3876 314.78 20.2993C314.727 19.6982 314.497 19.2917 314.09 19.0796C313.684 18.8498 312.994 18.7349 312.022 18.7349C311.227 18.7349 310.369 18.8232 309.45 19C308.549 19.1591 307.718 19.3801 306.958 19.6629V14.7841C307.895 14.5543 308.911 14.3687 310.007 14.2273C311.103 14.0859 312.172 14.0152 313.215 14.0152C315.849 14.0152 317.732 14.4924 318.863 15.447C319.994 16.4015 320.56 17.8775 320.56 19.875V24.7803H321.727ZM314.727 22.9242C313.931 22.9242 313.312 23.0303 312.871 23.2424C312.446 23.4545 312.234 23.8081 312.234 24.303C312.234 24.6035 312.323 24.851 312.499 25.0455C312.694 25.2222 312.959 25.3106 313.295 25.3106C313.754 25.3106 314.108 25.1162 314.355 24.7273C314.603 24.3384 314.727 23.7904 314.727 23.0833V22.9242Z" fill="black"/>
<path d="M295.387 23.8523V19.5038H303.898V23.8523H295.387Z" fill="black"/>
<defs>
<clipPath id="clip0_1_30">
<rect width="281.004" height="37.9735" fill="white" transform="translate(0 3.03787)"/>
</clipPath>
</defs>
</svg>
